<svg id="Component_28_1" data-name="Component 28 – 1" xmlns="http://www.w3.org/2000/svg" width="160" height="80" viewBox="0 0 160 80">
  <g id="Group_564" data-name="Group 564" transform="translate(-73.963 -136.931)">
    <path id="Subtraction_11" data-name="Subtraction 11" d="M6.956,19.12a6.75,6.75,0,0,1-4.887-1.967A7.982,7.982,0,0,1,0,11.42V5.772L5.58,2.55V10.6a3.423,3.423,0,0,0,.948,2.557,3.235,3.235,0,0,0,2.287.827,3.333,3.333,0,0,0,2.5-.925,4.03,4.03,0,0,0,.962-2.906V0h5.58V18.6h-5.58V16.851A6.411,6.411,0,0,1,6.956,19.12Z" transform="translate(115.539 185.018)" fill="#fff" stroke="rgba(0,0,0,0)" stroke-width="1"/>
    <path id="Union_7" data-name="Union 7" d="M2.582,38.555c-3.464-3.82-3.488-9.5.2-13.73a3.205,3.205,0,0,1,.373-.448l.813-.813c4.8-5,9.769-9.838,14.688-14.728.2-.2.406-.39.624-.584l2.871-2.871C19.915,3.624,18.049,2.16,16.187.7l.557-.7H32.564V15.844l-.777.593c-1.633-1.938-3.265-3.87-4.855-5.76-6.519,6.39-12.78,12.469-18.962,18.633C6.5,30.771,6.233,32.446,7.92,34.128c1.731,1.718,3.376,1.247,4.807-.19,2.079-2.079,3.981-4.342,5.981-6.549,1.907,1.975,3.6,3.389,5.14,4.991A78.616,78.616,0,0,1,16.365,39.7a10.352,10.352,0,0,1-6.358,2.284A10,10,0,0,1,2.582,38.555Z" transform="matrix(0.966, 0.259, -0.259, 0.966, 106.83, 145.931)" fill="#fff"/>
    <path id="Path_15" data-name="Path 15" d="M18.464-88.38a6.589,6.589,0,0,0-5.227,2.14v-1.649H7.975v24.557h5.262V-72a6.589,6.589,0,0,0,5.227,2.14c4.6,0,8.384-4.034,8.384-9.261S23.06-88.38,18.464-88.38ZM17.412-74.839a4.006,4.006,0,0,1-4.175-4.28,4.006,4.006,0,0,1,4.175-4.28,4.006,4.006,0,0,1,4.175,4.28A4.006,4.006,0,0,1,17.412-74.839ZM38.25-69.857a8.955,8.955,0,0,0,7.928-4.525l-4.6-2.631a3.6,3.6,0,0,1-3.4,1.965,3.86,3.86,0,0,1-3.964-4.069,3.86,3.86,0,0,1,3.964-4.069,3.632,3.632,0,0,1,3.4,1.965l4.6-2.666a9.038,9.038,0,0,0-7.928-4.49,9.087,9.087,0,0,0-9.3,9.261A9.087,9.087,0,0,0,38.25-69.857ZM60.666-87.889v1.649a6.589,6.589,0,0,0-5.227-2.14c-4.6,0-8.384,4.034-8.384,9.261s3.789,9.261,8.384,9.261A6.589,6.589,0,0,0,60.666-72v1.649h5.262v-17.54Zm-4.175,13.05a4.006,4.006,0,0,1-4.175-4.28,4.006,4.006,0,0,1,4.175-4.28,4.006,4.006,0,0,1,4.175,4.28A4.006,4.006,0,0,1,56.492-74.839Zm23.574-8v-5.052H76.453V-92.8l-5.262,1.579v3.333H68.384v5.052h2.806v6.209c0,4.911,2,6.981,8.875,6.279v-4.771c-2.315.14-3.613,0-3.613-1.508v-6.209Z" transform="translate(130.971 271.401)" fill="#fff"/>
  </g>
  <rect id="Rectangle_248" data-name="Rectangle 248" width="160" height="80" fill="none"/>
</svg>
